Coordinates
version=1
nRows=10
nColumns=38
inDegrees=yes

Units are S.I. units (second, meters, Newtons, ...)
Angles are in degrees.

endheader
time	pelvis_tilt	pelvis_list	pelvis_rotation	pelvis_tx	pelvis_ty	pelvis_tz	hip_flexion_r	hip_adduction_r	hip_rotation_r	knee_angle_r	ankle_angle_r	subtalar_angle_r	mtp_angle_r	hip_flexion_l	hip_adduction_l	hip_rotation_l	knee_angle_l	ankle_angle_l	subtalar_angle_l	mtp_angle_l	lumbar_extension	lumbar_bending	lumbar_rotation	arm_flex_r	arm_add_r	arm_rot_r	elbow_flex_r	pro_sup_r	wrist_flex_r	wrist_dev_r	arm_flex_l	arm_add_l	arm_rot_l	elbow_flex_l	pro_sup_l	wrist_flex_l	wrist_dev_l
      0.00000000	     -3.88006486	      1.34583935	     -0.01746322	      0.77997411	      0.99819688	     -0.19640913	    -27.10632643	      2.73248598	     -3.19595512	     -9.22324118	    -24.87870629	      0.00000000	      0.00000000	     37.26899087	      3.15248558	     -7.04319643	    -31.14959956	      4.94458299	      0.00000000	      0.00000000	     -3.66863348	      1.48895353	     16.42532693	    -11.28885862	    -34.59002424	      4.56393944	    126.67637343	     11.43493159	      0.00000000	      0.00000000	    -41.35146647	    -27.06459154	     10.99906908	     81.10012870	      6.25409995	      0.00000000	      0.00000000
      0.01666667	     -2.75350830	     -0.60564695	      1.01965503	      0.78400537	      1.00028390	     -0.19658024	    -27.13358521	      5.05334797	     -1.99566255	    -17.40689380	    -23.77510137	      0.00000000	      0.00000000	     34.05990584	      2.59115034	     -4.74795949	    -25.18286885	      4.81392918	      0.00000000	      0.00000000	     -4.30564322	      3.57135245	     16.16107012	    -12.27171396	    -34.61780606	      4.24335880	    126.79064834	     11.11299736	      0.00000000	      0.00000000	    -42.71929828	    -27.69565014	      9.83806887	     82.05049899	      6.48709450	      0.00000000	      0.00000000
      0.03333333	     -1.63186021	     -2.08332487	      1.80688478	      0.78622804	      0.99961939	     -0.19680753	    -26.08245767	      6.78052539	     -1.54893579	    -27.18497263	    -23.03911105	      0.00000000	      0.00000000	     31.38812515	      2.09414168	     -3.11292054	    -20.67778180	      5.16119895	      0.00000000	      0.00000000	     -5.25330286	      5.10146320	     15.81121317	    -13.11860345	    -34.45229705	      3.88981159	    126.61728085	     10.94786079	      0.00000000	      0.00000000	    -43.72333572	    -28.29519429	      8.83922465	     83.16367963	      6.66927416	      0.00000000	      0.00000000
      0.05000000	     -1.27640426	     -2.33163868	      1.98242642	      0.78599049	      0.99492972	     -0.19741588	    -23.16405675	      6.74608100	     -2.29178477	    -38.36249077	    -22.04407072	      0.00000000	      0.00000000	     30.40461671	      2.36315191	     -2.83215338	    -18.88565154	      5.14509045	      0.00000000	      0.00000000	     -5.72719882	      5.20131118	     15.83784392	    -14.34988946	    -34.55918646	      3.36214374	    125.49391267	     10.61774613	      0.00000000	      0.00000000	    -44.12450707	    -28.72521800	      7.65472487	     84.62500130	      6.70434172	      0.00000000	      0.00000000
      0.06666667	     -0.30360011	     -2.37219292	      2.43139597	      0.78508642	      0.98961779	     -0.19824434	    -21.13705210	      6.50946373	     -3.01435940	    -47.97295575	    -22.06745585	      0.00000000	      0.00000000	     29.42661269	      2.85054952	     -1.93770243	    -19.97457579	      6.32959227	      0.00000000	      0.00000000	     -6.85432004	      5.09265180	     15.29696018	    -15.01866257	    -34.00344510	      3.03215929	    122.32359210	     10.16680009	      0.00000000	      0.00000000	    -42.89019259	    -28.99637258	      7.59160436	     84.85268098	      6.63186588	      0.00000000	      0.00000000
      0.08333333	      0.77264139	     -1.97251780	      2.86890235	      0.78298783	      0.98285497	     -0.19907839	    -18.78686489	      5.66514276	     -3.92467522	    -57.25708546	    -21.69732303	      0.00000000	      0.00000000	     28.86216138	      3.69049559	     -1.37913796	    -23.63638748	      7.98678649	      0.00000000	      0.00000000	     -8.53724738	      4.39954064	     14.49671941	    -15.82952046	    -33.38864827	      3.09067041	    118.05506170	      9.62894501	      0.00000000	      0.00000000	    -40.51696304	    -29.06021029	      7.88664727	     84.63136684	      6.55108935	      0.00000000	      0.00000000
      0.10000000	     -1.14953487	     -0.05844736	      2.20357507	      0.77933408	      0.96927223	     -0.20014668	    -12.08503322	      1.72353050	     -5.33924465	    -68.06472942	    -19.90234103	      0.00000000	      0.00000000	     32.79262068	      5.49372806	     -3.08678421	    -31.42374162	      9.97359966	      0.00000000	      0.00000000	     -6.21810296	      2.06554617	     14.28605440	    -15.62247371	    -32.23483890	      4.13953623	    110.82258204	      9.09305974	      0.00000000	      0.00000000	    -37.35902626	    -29.93952591	     10.57375522	     84.00316920	      6.47068725	      0.00000000	      0.00000000
      0.11666667	      0.41777957	      0.36471063	      2.18637585	      0.77562644	      0.95881776	     -0.20106986	     -9.35943558	     -0.01792855	     -5.80454499	    -76.49497962	    -17.73479553	      0.00000000	      0.00000000	     32.50857948	      6.08944723	     -3.09685670	    -39.60159060	     13.03505300	      0.00000000	      0.00000000	     -8.88479006	      1.28201472	     13.23382057	    -15.57538924	    -31.37420645	      4.68705206	    105.05000289	      8.65217020	      0.00000000	      0.00000000	    -33.30640820	    -29.17937102	     11.55621480	     82.86979957	      6.48624270	      0.00000000	      0.00000000
      0.13333333	      0.67426228	      0.94051650	      1.16619021	      0.77117179	      0.94774132	     -0.20005437	     -4.13764038	     -1.78187890	     -4.58937104	    -84.81649560	    -14.72647657	      0.00000000	      0.00000000	     32.10396816	      6.26187100	     -4.00671289	    -46.01021314	     15.58938138	      0.00000000	      0.00000000	     -9.25287361	      0.16253867	     12.83662132	    -14.10838158	    -30.50576086	      7.31271218	     96.81311690	      8.28513291	      0.00000000	      0.00000000	    -28.19507258	    -29.06503140	     14.85828895	     80.77211399	      6.39018709	      0.00000000	      0.00000000
      0.15000000	      1.81917610	      0.93691782	      1.18474756	      0.76559935	      0.93768291	     -0.20037681	      0.60261583	     -2.97611293	     -4.56106331	    -91.83115749	    -12.08426680	      0.00000000	      0.00000000	     29.71991947	      6.55196450	     -3.47625170	    -51.27316938	     18.61584693	      0.00000000	      0.00000000	    -12.39017189	     -0.27476328	     11.14182667	    -14.53414743	    -29.64412414	      8.06830686	     93.13245763	      8.07840248	      0.00000000	      0.00000000	    -23.95745707	    -27.54335126	     14.94329382	     80.43019437	      6.57430972	      0.00000000	      0.00000000
